<svg width="32" height="32" viewBox="0 0 32 32" fill="none" xmlns="http://www.w3.org/2000/svg">
  <path fill-rule="evenodd" clip-rule="evenodd"
    d="M4.7998 27.1999C4.7998 26.7756 4.96838 26.3686 5.26843 26.0686C5.56849 25.7685 5.97546 25.5999 6.3998 25.5999H25.5998C26.0242 25.5999 26.4311 25.7685 26.7312 26.0686C27.0312 26.3686 27.1998 26.7756 27.1998 27.1999C27.1998 27.6243 27.0312 28.0313 26.7312 28.3313C26.4311 28.6314 26.0242 28.7999 25.5998 28.7999H6.3998C5.97546 28.7999 5.56849 28.6314 5.26843 28.3313C4.96838 28.0313 4.7998 27.6243 4.7998 27.1999ZM10.0686 14.8688C10.3686 14.5688 10.7755 14.4003 11.1998 14.4003C11.6241 14.4003 12.031 14.5688 12.331 14.8688L14.3998 16.9376V4.79995C14.3998 4.3756 14.5684 3.96864 14.8684 3.66858C15.1685 3.36852 15.5755 3.19995 15.9998 3.19995C16.4242 3.19995 16.8311 3.36852 17.1312 3.66858C17.4312 3.96864 17.5998 4.3756 17.5998 4.79995V16.9376L19.6686 14.8688C19.8162 14.7159 19.9928 14.594 20.188 14.5102C20.3832 14.4263 20.5931 14.3822 20.8056 14.3803C21.018 14.3785 21.2287 14.419 21.4253 14.4994C21.622 14.5799 21.8006 14.6987 21.9508 14.8489C22.1011 14.9991 22.2199 15.1778 22.3003 15.3744C22.3808 15.5711 22.4213 15.7817 22.4194 15.9942C22.4176 16.2066 22.3734 16.4166 22.2896 16.6118C22.2057 16.807 22.0838 16.9836 21.931 17.1312L17.131 21.9312C16.831 22.2311 16.4241 22.3996 15.9998 22.3996C15.5755 22.3996 15.1687 22.2311 14.8686 21.9312L10.0686 17.1312C9.76865 16.8311 9.60015 16.4242 9.60015 16C9.60015 15.5757 9.76865 15.1688 10.0686 14.8688Z"
    fill="white" />
  <path fill-rule="evenodd" clip-rule="evenodd"
    d="M4.7998 27.2001C4.7998 26.7758 4.96838 26.3688 5.26843 26.0687C5.56849 25.7687 5.97546 25.6001 6.3998 25.6001H25.5998C26.0242 25.6001 26.4311 25.7687 26.7312 26.0687C27.0312 26.3688 27.1998 26.7758 27.1998 27.2001C27.1998 27.6244 27.0312 28.0314 26.7312 28.3315C26.4311 28.6315 26.0242 28.8001 25.5998 28.8001H6.3998C5.97546 28.8001 5.56849 28.6315 5.26843 28.3315C4.96838 28.0314 4.7998 27.6244 4.7998 27.2001ZM10.0686 10.7313C9.76865 10.4313 9.60015 10.0244 9.60015 9.6001C9.60015 9.17584 9.76865 8.76894 10.0686 8.4689L14.8686 3.6689C15.1687 3.36894 15.5755 3.20044 15.9998 3.20044C16.4241 3.20044 16.831 3.36894 17.131 3.6689L21.931 8.4689C22.2225 8.77066 22.3837 9.17483 22.3801 9.59434C22.3764 10.0139 22.2082 10.4152 21.9115 10.7118C21.6149 11.0085 21.2136 11.1767 20.794 11.1804C20.3745 11.184 19.9704 11.0228 19.6686 10.7313L17.5998 8.6625V20.8001C17.5998 21.2244 17.4312 21.6314 17.1312 21.9315C16.8311 22.2315 16.4242 22.4001 15.9998 22.4001C15.5755 22.4001 15.1685 22.2315 14.8684 21.9315C14.5684 21.6314 14.3998 21.2244 14.3998 20.8001V8.6625L12.331 10.7313C12.031 11.0313 11.6241 11.1998 11.1998 11.1998C10.7755 11.1998 10.3686 11.0313 10.0686 10.7313Z"
    fill="white" />
</svg>